<?xml version="1.0" encoding="utf-8"?>
<!-- Generator: Adobe Illustrator 25.4.1, SVG Export Plug-In . SVG Version: 6.00 Build 0)  -->
<svg version="1.1" id="Layer_1" xmlns="http://www.w3.org/2000/svg" xmlns:xlink="http://www.w3.org/1999/xlink" x="0px" y="0px"
	 viewBox="0 0 720 720" style="enable-background:new 0 0 720 720;" xml:space="preserve">
<style type="text/css">
	.st0{fill:#B91D00;}
	.st1{fill:#FFFFFF;}
</style>
<g>
	<path d="M360,53C190.45,53,53,190.45,53,360s137.45,307,307,307s307-137.45,307-307S529.55,53,360,53z M360,436.75
		c-42.4,0-76.75-34.35-76.75-76.75c0-42.4,34.35-76.75,76.75-76.75s76.75,34.35,76.75,76.75C436.75,402.4,402.4,436.75,360,436.75z"
		/>
</g>
<g>
	<path class="st0" d="M360,164.64c-107.89,0-195.36,87.47-195.36,195.36S252.11,555.36,360,555.36S555.36,467.89,555.36,360
		S467.89,164.64,360,164.64z M360,436.75c-42.4,0-76.75-34.35-76.75-76.75c0-42.4,34.35-76.75,76.75-76.75s76.75,34.35,76.75,76.75
		C436.75,402.4,402.4,436.75,360,436.75z"/>
</g>
<g>
	<path class="st1" d="M234.79,235.01l45.37,31.47l-11.32,16.31l-23.16-16.06l8.17,19.18l-0.28,0.4l-20.78-1l23.16,16.06
		l-11.32,16.31l-45.37-31.47l12.2-17.59l20.38,2.3l-9.25-18.35L234.79,235.01z"/>
	<path class="st1" d="M257.4,231.93l18.05-10.39l12.35,21.44c1.1,1.91,3.48,2.61,5.32,1.55c1.84-1.06,2.43-3.47,1.33-5.38
		l-12.35-21.45l18.05-10.39l21.6,37.51l-17.48,10.07l-2.12-3.68c-1.2,4.46-4.22,8.55-9.1,11.37c-7.57,4.36-16.7,2.27-20.98-5.17
		L257.4,231.93z"/>
	<path class="st1" d="M356.65,225.56c1.79,10.05-5.38,16.31-18.01,18.56c-7.08,1.26-14.17,0.54-20.25-1.45l-0.33-12.55
		c4.05,1.77,9.78,2.74,15.25,1.76c2.17-0.39,3.27-1.17,3.09-2.21c-0.48-2.65-18.33,3.27-21.07-12.08
		c-1.81-10.13,5.69-16.45,18.31-18.7c5.95-1.06,11.74-0.68,17.02,0.53l0.31,11.97c-3.12-0.77-8.58-1.12-11.95-0.52
		c-2.01,0.36-4.25,0.84-4,2.21C335.54,216.05,353.83,209.8,356.65,225.56z"/>
	<path class="st1" d="M361.82,197.47l20.77,1.56l-3.26,43.16l-20.77-1.56L361.82,197.47z M383.15,194.9l-21.26-1.6l0.97-12.87
		l21.26,1.6L383.15,194.9z"/>
	<path class="st1" d="M419.49,237.97l-1.92,14.09c-4.49,0.03-10.12-0.4-16.07-2.41c-14.16-4.78-20.03-16.5-15.71-29.27
		c4.26-12.61,16.08-18.53,30.24-13.75c5.96,2.01,10.67,5.16,14.22,7.91l-6.84,11.82c-1.6-1.4-3.71-3.06-7.34-4.29
		c-6.58-2.22-9.72,1.2-10.87,4.6c-1.12,3.33-0.75,8.11,5.82,10.32C414.66,238.23,417.35,238.19,419.49,237.97z"/>
	<path class="st1" d="M489.7,285.04c-13.29,11.98-29.77,9.79-42.18-3.98c-12.47-13.83-12.94-30.45,0.35-42.43
		c13.28-11.98,29.77-9.79,42.24,4.04C502.51,256.44,502.98,273.06,489.7,285.04z M475.31,269.08c6.07-5.47,7.34-11.01,3.02-15.8
		c-4.37-4.85-10.02-4.16-16.09,1.31c-6.07,5.47-7.34,11.01-2.96,15.86C463.61,275.24,469.25,274.55,475.31,269.08z"/>
	<path class="st1" d="M532.17,310.36l-11.13,2.98c-0.14-0.56-0.33-1.27-0.58-1.88c-0.94-2.35-2.19-4.58-6.05-3.02l-0.3,0.12
		l2.56,6.37l-13.26,5.33l-2.56-6.37l-26.9,10.81l-7.77-19.32l26.9-10.81l-1.71-4.24l13.26-5.33l1.7,4.24l0.15-0.06
		c13.34-5.36,19.93,1.41,23.1,9.29C531.47,303.16,532.16,307.28,532.17,310.36z"/>
</g>
<g>
	<path class="st1" d="M215.87,462.84l-9.04-19.31l7.29-6.21l-6.92-14.79l-9.4,1.69l-9.07-19.38l58.18-5.94l10.77,23.01
		L215.87,462.84z M220.38,420.24l3.95,8.44l13.42-11.42L220.38,420.24z"/>
	<path class="st1" d="M305.72,491.28c-9.04,13.51-26.07,8.7-37.38-0.24l-7.9,11.81l-17.38-11.63
		c30.52-45.63,30.57-45.69,30.57-45.69c3.37,1.57,9.42,4.73,17.23,9.95C302.86,463.52,315.08,477.29,305.72,491.28z M276.42,478.66
		c2.65,2.06,8.85,5.72,12.08,0.9c3.04-4.55-2.84-9.27-5.58-10.61L276.42,478.66z"/>
	<path class="st1" d="M321.38,512.55c0.95,3.98,5.11,5.92,10.53,7.14c4.06,0.91,7.92,0.86,11.52,0.49l-0.61,12.42
		c-5.29,0.82-12.21,0.35-18.67-1.1c-13.7-3.08-23.47-12.88-20.01-28.26c2.97-13.23,15.38-19.31,27.73-16.54
		c17.69,3.97,21.51,17.13,16.04,31.8L321.38,512.55z M333.47,505.31c0.28-3.12-0.58-5.99-3.77-6.7c-3.35-0.75-5.43,1.46-6.75,4.34
		L333.47,505.31z M333.47,505.31l-10.52-2.36L333.47,505.31z"/>
	<path class="st1" d="M407.28,506.86c2.24,14.2-8.33,24.3-22.2,26.48c-13.95,2.2-27.18-4.07-29.43-18.35
		c-2.25-14.28,8.41-24.31,22.36-26.51C391.89,486.31,405.05,492.66,407.28,506.86z M387.52,509.97c-0.63-4.03-3.6-7.12-7.23-6.55
		c-3.63,0.57-5.5,4.42-4.87,8.45c0.63,4.03,3.6,7.12,7.23,6.55C386.28,517.86,388.16,514.01,387.52,509.97z"/>
	<path class="st1" d="M442.2,508.73l10.11,17.36l-17.99,10.49l-29.77-51.08l17.29-10.07l2.8,4.8c0.74-5.06,3.37-9.62,8.03-12.34
		c9.38-5.47,20.91-0.28,27.21,10.52c6.29,10.79,4.69,23.45-4.98,29.08C450.59,509.99,446.38,510.07,442.2,508.73z M431.92,494.49
		c2.02,3.46,5.78,5.05,8.88,3.24c3.11-1.81,3.58-5.87,1.56-9.32c-2.02-3.46-5.77-5.04-8.88-3.24
		C430.37,486.98,429.9,491.04,431.92,494.49z"/>
	<path class="st1" d="M436.27,445.03l14.16-15.28l44.26,41.04l-14.16,15.27L436.27,445.03z"/>
	<path class="st1" d="M497.62,436.25c4.09,0.1,7.03-3.43,9.59-8.35c1.92-3.7,2.86-7.44,3.43-11.01l11.84,3.77
		c-0.56,5.32-2.78,11.9-5.83,17.77c-6.48,12.46-18.46,19.39-32.45,12.12c-12.02-6.25-14.73-19.81-8.89-31.04
		c8.37-16.09,22.07-16.41,34.85-7.37L497.62,436.25z M493.71,422.71c-2.94-1.07-5.94-0.97-7.45,1.93c-1.58,3.04,0.02,5.62,2.47,7.64
		L493.71,422.71z M493.71,422.71l-4.97,9.57L493.71,422.71z"/>
</g>
</svg>
